<svg width="1200" height="900" viewBox="0 0 1200 900" fill="none" xmlns="http://www.w3.org/2000/svg" role="img" aria-label="찰칵밥상 이미지 준비 중">
  <rect width="1200" height="900" rx="32" fill="#FFF6EF"/>
  <rect x="84" y="78" width="1032" height="744" rx="46" fill="#FFFDFC"/>
  <path d="M84 696C246 624 408 632 582 684C754 736 902 750 1116 666V822H84V696Z" fill="#FFE2CE"/>
  <g transform="translate(450 210) scale(1.666667)">
    <rect width="180" height="180" rx="39" fill="#EF4B25"/>
    <g transform="translate(-10 2)">
      <circle cx="64" cy="67" r="21" fill="#FFF7ED"/>
      <circle cx="100" cy="60" r="33" fill="#FFF7ED"/>
      <circle cx="136" cy="74" r="21" fill="#FFF7ED"/>
      <rect x="57" y="70" width="86" height="58" rx="14" fill="#FFF7ED"/>
      <path d="M83 77C87.8 68.6 94.2 64.4 102 64.4C109.8 64.4 116.2 68.6 121 77" stroke="#FFD4C5" stroke-width="7" stroke-linecap="round"/>
      <path d="M75 93H125M75 104H125M80 115H120" stroke="#EF4B25" stroke-width="7" stroke-linecap="round"/>
    </g>
  </g>
  <text x="600" y="632" text-anchor="middle" fill="#1F2937" font-family="Arial, sans-serif" font-size="44" font-weight="800">이미지 준비 중</text>
  <text x="600" y="688" text-anchor="middle" fill="#6B7280" font-family="Arial, sans-serif" font-size="28" font-weight="700">찰칵밥상에서 곧 보여드릴게요</text>
</svg>
